<?xml version="1.0" encoding="UTF-8"?>
<!DOCTYPE svg PUBLIC "-//W3C//DTD SVG 1.1//EN" "http://www.w3.org/Graphics/SVG/1.1/DTD/svg11.dtd">
<!-- Creator: CorelDRAW 2020 (64-Bit) -->
<svg xmlns="http://www.w3.org/2000/svg" xml:space="preserve" width="1.70666in" height="1.70666in" version="1.1" style="shape-rendering:geometricPrecision; text-rendering:geometricPrecision; image-rendering:optimizeQuality; fill-rule:evenodd; clip-rule:evenodd"
viewBox="0 0 1706.66 1706.66"
 xmlns:xlink="http://www.w3.org/1999/xlink"
 xmlns:xodm="http://www.corel.com/coreldraw/odm/2003">
 <defs>
  <style type="text/css">
   <![CDATA[
    .fil1 {fill:#FEFEFE;fill-rule:nonzero}
    .fil0 {fill:#325094;fill-rule:nonzero}
   ]]>
  </style>
 </defs>
 <g id="Layer_x0020_1">
  <metadata id="CorelCorpID_0Corel-Layer"/>
  <g id="_2013343499584">
   <path class="fil0" d="M1671.58 853.19c0,-454.65 -368.57,-823.2 -823.18,-823.2 -454.63,0 -823.18,368.55 -823.18,823.2 0,454.61 368.55,823.17 823.18,823.17 2.36,0 4.68,-0.16 7.05,-0.16l0 -574.28 -198.2 0 0 -229.54 198.2 0 0 -169.26c0,-196.44 119.97,-303.41 295.18,-303.41 83.95,0 156.09,6.26 177.12,9.04l0 205.3 -121.54 0.05c-95.3,0 -113.73,45.28 -113.73,111.72l0 146.55 227.28 0 -29.6 229.54 -197.68 0 0 537.64c335.45,-104.01 579.11,-416.73 579.11,-786.37z"/>
   <path class="fil1" d="M1290.15 1101.92l29.6 -229.54 -227.28 0 0 -146.55c0,-66.45 18.44,-111.72 113.73,-111.72l121.54 -0.05 0 -205.3c-21.02,-2.78 -93.17,-9.04 -177.12,-9.04 -175.21,0 -295.18,106.97 -295.18,303.41l0 169.26 -198.2 0 0 229.54 198.2 0 0 574.28c82.46,-0.7 162.05,-13.4 237.02,-36.63l0 -537.64 197.68 0z"/>
  </g>
 </g>
</svg>
