<?xml version="1.0" encoding="UTF-8"?>
<!DOCTYPE svg PUBLIC "-//W3C//DTD SVG 1.1//EN" "http://www.w3.org/Graphics/SVG/1.1/DTD/svg11.dtd">
<!-- Creator: CorelDRAW 2020 (64-Bit) -->
<svg xmlns="http://www.w3.org/2000/svg" xml:space="preserve" width="1.70666in" height="1.70666in" version="1.1" style="shape-rendering:geometricPrecision; text-rendering:geometricPrecision; image-rendering:optimizeQuality; fill-rule:evenodd; clip-rule:evenodd"
viewBox="0 0 1706.66 1706.66"
 xmlns:xlink="http://www.w3.org/1999/xlink"
 xmlns:xodm="http://www.corel.com/coreldraw/odm/2003">
 <defs>
  <style type="text/css">
   <![CDATA[
    .fil1 {fill:#FEFEFE;fill-rule:nonzero}
    .fil0 {fill:#0FB7EB;fill-rule:nonzero}
   ]]>
  </style>
 </defs>
 <g id="Layer_x0020_1">
  <metadata id="CorelCorpID_0Corel-Layer"/>
  <g id="_2047818469168">
   <path class="fil0" d="M1679.68 837.91c0,453.77 -367.87,821.63 -821.64,821.63 -453.76,0 -821.63,-367.86 -821.63,-821.63 0,-453.79 367.87,-821.64 821.63,-821.64 453.77,0 821.64,367.85 821.64,821.64z"/>
   <path class="fil1" d="M1383.33 454.13l0 0c0,0 0,-0.01 0,0.01 0,0 0,0 0,-0.01z"/>
   <path class="fil1" d="M1344.94 553.74c-21.2,5.87 -37.9,4.95 -37.9,4.95l0.68 -4.03c19.75,-15.82 69.56,-64.33 76.14,-87.02 2.84,-9.82 -0.54,-13.19 -0.56,-13.52l-63.63 27.03 -53.25 24.02 0 0c-36.75,-38.91 -92.37,-63.69 -154.58,-63.69 -110.69,0 -200.44,78.41 -200.44,175.15 0,17.7 2.65,49.99 8.22,66.09 0,5.07 0.2,-5.08 0,0 -71.29,-1.95 -162.65,-31.19 -244.01,-72.41 -160.48,-81.31 -170.53,-137.59 -170.53,-137.59 -25.19,26.75 -38.21,115.38 -12.64,184.88 16.34,44.48 72.57,84.41 72.57,84.41l0 0c0,0 -25.14,0.46 -51.47,-8.46 -26.35,-8.9 -36.29,-17.72 -36.29,-17.72 -15.66,38.19 15.78,106.41 70.06,155.33 31.65,28.54 89.46,46.41 89.46,46.41l-90.33 2.57c-5.06,87.78 184.11,139.91 184.11,139.91l0 0c-55.44,42.66 -119.78,68.63 -188.75,68.63 -35.75,0 -70.28,-5.35 -103.05,-15.14 91.1,75.07 208.19,126.89 335.52,120.19 337.77,-17.74 528.45,-308.09 537.52,-593.25l0.45 0.58c0,0 15.81,-7.89 49.65,-41.74 33.82,-33.83 54.88,-73.43 54.88,-73.43 0,0 -50.59,21.99 -71.84,27.84z"/>
   <path class="fil1" d="M1383.33 454.14c0.26,5.4 0,0.54 0,0l0 0z"/>
  </g>
 </g>
</svg>
